<svg xmlns="http://www.w3.org/2000/svg" width="512" height="512" enable-background="new 0 0 512 512" viewBox="0 0 512 512" id="laptop">
  <g>
    <path fill="#cee1f2" d="m100 302c0-22.091 17.909-40 40-40h-60c-22.091 0-40 17.909-40 40 0 22.091 17.909 40 40 40h60c-22.091 0-40-17.909-40-40z"></path>
    <path fill="#1428bf" d="m422 207c-11.046 0-20-8.954-20-20v-87c0-33.084-26.916-60-60-60h-172c-33.084 0-60 26.916-60 60v87c0 11.046-8.954 20-20 20s-20-8.954-20-20v-87c0-55.141 44.86-100 100-100h172c55.14 0 100 44.859 100 100v87c0 11.046-8.954 20-20 20zm70 95c0-33.084-26.916-60-60-60h-352c-33.084 0-60 26.916-60 60s26.916 60 60 60h352c33.084 0 60-26.916 60-60zm-60-20c11.028 0 20 8.972 20 20s-8.972 20-20 20h-352c-11.028 0-20-8.972-20-20s8.972-20 20-20zm-115 170c0-33.084-26.916-60-60-60s-60 26.916-60 60 26.916 60 60 60 60-26.916 60-60zm-40 0c0 11.028-8.972 20-20 20s-20-8.972-20-20 8.972-20 20-20 20 8.972 20 20z"></path>
    <path fill="#ff5cf0" d="m492 472h-115c-11.046 0-20-8.954-20-20s8.954-20 20-20h115c11.046 0 20 8.954 20 20s-8.954 20-20 20zm-337-20c0-11.046-8.954-20-20-20h-115c-11.046 0-20 8.954-20 20s8.954 20 20 20h115c11.046 0 20-8.954 20-20z"></path>
  </g>
</svg>
