<svg xmlns="http://www.w3.org/2000/svg" viewBox="0 0 110 110" id="mapping-idea">
  <g>
    <circle cx="55" cy="59" r="50" fill="#e7efff"></circle>
    <path fill="#fff" d="M87,67H56V51a1,1,0,0,0-2,0V67H23a3,3,0,0,0-3,3v7a1,1,0,0,0,2,0V70a1,1,0,0,1,1-1H54v5a1,1,0,0,0,2,0V69H87a1,1,0,0,1,1,1v7a1,1,0,0,0,2,0V70A3,3,0,0,0,87,67Z"></path>
    <circle cx="8" cy="12" r="3" fill="#ff4d69"></circle>
    <circle cx="99" cy="6" r="3" fill="#00c99f"></circle>
    <circle cx="106" cy="66" r="3" fill="#ffa100"></circle>
    <circle cx="4" cy="96" r="3" fill="#00c99f"></circle>
    <path fill="#a5bced" d="M63 52H47a2 2 0 010-4H63a2 2 0 010 4zM63 56H47a2 2 0 010-4H63a2 2 0 010 4z"></path>
    <path fill="#7f96d1" d="M55,63a7,7,0,0,1-7-7H62A7,7,0,0,1,55,63Z"></path>
    <rect width="26" height="30" x="42" y="73" fill="#4e6aff" rx="4"></rect>
    <path fill="#ffa100" d="M77 23A22 22 0 1040.8 39.8 22.32 22.32 0 0147 48H63a22.49 22.49 0 016.23-8.22A22 22 0 0077 23zM91 24H83a1 1 0 010-2h8a1 1 0 010 2zM81 13a1 1 0 01-.71-1.71l5-5a1 1 0 011.42 1.42l-5 5A1 1 0 0181 13zM86 40a1 1 0 01-.71-.29l-5-5a1 1 0 011.42-1.42l5 5A1 1 0 0186 40zM27 24H19a1 1 0 010-2h8a1 1 0 010 2zM29 13a1 1 0 01-.71-.29l-5-5a1 1 0 011.42-1.42l5 5A1 1 0 0129 13zM24 40a1 1 0 01-.71-1.71l5-5a1 1 0 011.42 1.42l-5 5A1 1 0 0124 40z"></path>
    <path fill="#4e6aff" d="M34,77V99a4,4,0,0,1-3,3.87A50.1,50.1,0,0,1,8.07,76.27,4,4,0,0,1,12,73H30A4,4,0,0,1,34,77Z"></path>
    <rect width="26" height="30" x="76" y="73" fill="#4e6aff" rx="4"></rect>
    <path fill="#8fa2ff" d="M29 80H13a1 1 0 010-2H29a1 1 0 010 2zM30 85a1 1 0 01-1 1c-14.27 0-16 0-16.07 0-.31-.45-.59-.91-.85-1.37A1 1 0 0113 84H29A1 1 0 0130 85zM30 91a1 1 0 01-1 1H17.44c-.57-.65-1.13-1.32-1.66-2H29A1 1 0 0130 91zM30 97a1 1 0 01-1 1H23.71c-.8-.64-1.58-1.31-2.33-2H29A1 1 0 0130 97zM63 80H47a1 1 0 010-2H63a1 1 0 010 2zM63 86H47a1 1 0 010-2H63a1 1 0 010 2zM63 92H47a1 1 0 010-2H63a1 1 0 010 2zM63 98H47a1 1 0 010-2H63a1 1 0 010 2zM97 80H81a1 1 0 010-2H97a1 1 0 010 2zM97 86H81a1 1 0 010-2H97a1 1 0 010 2zM97 92H81a1 1 0 010-2H97a1 1 0 010 2zM97 98H81a1 1 0 010-2H97a1 1 0 010 2z"></path>
    <path fill="#fff" d="M61,33a6,6,0,1,0-8,5.65V48h4V38.65A6,6,0,0,0,61,33Z"></path>
    <path fill="#4e6aff" d="M34 55H32V50a1 1 0 00-2 0v5H28a1 1 0 00-.8 1.6l3 4a1 1 0 001.6 0l3-4A1 1 0 0034 55zM82 55H80V50a1 1 0 00-2 0v5H76a1 1 0 00-.8 1.6l3 4a1 1 0 001.6 0l3-4A1 1 0 0082 55z"></path>
  </g>
</svg>
